<?xml version="1.0" encoding="utf-8"?>
<!-- Generator: Adobe Illustrator 22.0.1, SVG Export Plug-In . SVG Version: 6.00 Build 0)  -->
<svg version="1.1" id="Layer_1" xmlns="http://www.w3.org/2000/svg" xmlns:xlink="http://www.w3.org/1999/xlink" x="0px" y="0px"
	 viewBox="0 0 120 120" style="enable-background:new 0 0 120 120;" xml:space="preserve">
<style type="text/css">
	.st0{fill:#EB6932;}
	.st1{fill:#E03E46;}
	.st2{fill:#D4145A;}
	.st3{fill:#BC2A91;}
	.st4{fill:#A43FC8;}
	.st5{stroke:#000000;stroke-width:4;stroke-miterlimit:10;}
</style>
<polygon class="st0" points="406,-106.4 406,-42.4 439.9,-76.3 "/>
<polygon class="st1" points="351,-106.5 351,-42.6 384.9,-76.5 "/>
<polygon class="st2" points="288,-106.7 288,-42.7 321.9,-76.6 "/>
<polygon class="st3" points="232,-106.8 232,-42.9 265.9,-76.8 "/>
<polygon class="st4" points="170,-107 170,-43 203.9,-77 "/>
<path class="st5" d="M94.5,35.5h-69c-3.8,0-7-3.1-7-7v0c0-3.8,3.1-7,7-7h69c3.8,0,7,3.1,7,7v0C101.5,32.4,98.4,35.5,94.5,35.5z"/>
<path class="st5" d="M94.5,95.5h-69c-3.8,0-7-3.1-7-7v0c0-3.8,3.1-7,7-7h69c3.8,0,7,3.1,7,7v0C101.5,92.4,98.4,95.5,94.5,95.5z"/>
<path class="st5" d="M94.5,65.5h-69c-3.8,0-7-3.1-7-7v0c0-3.8,3.1-7,7-7h69c3.8,0,7,3.1,7,7v0C101.5,62.4,98.4,65.5,94.5,65.5z"/>
</svg>
