<?xml version="1.0" encoding="utf-8"?>
<!-- Generator: Adobe Illustrator 22.0.1, SVG Export Plug-In . SVG Version: 6.00 Build 0)  -->
<svg version="1.1" id="Layer_1" xmlns="http://www.w3.org/2000/svg" xmlns:xlink="http://www.w3.org/1999/xlink" x="0px" y="0px"
	 viewBox="0 0 120 120" style="enable-background:new 0 0 120 120;" xml:space="preserve">
<style type="text/css">
	.st0{fill:#EB6932;}
	.st1{fill:#E03E46;}
	.st2{fill:#D4145A;}
	.st3{fill:#BC2A91;}
	.st4{fill:#A43FC8;}
	.st5{stroke:#000000;stroke-width:4;stroke-miterlimit:10;}
</style>
<polygon class="st0" points="406,-106.4 406,-42.4 439.9,-76.3 "/>
<polygon class="st1" points="351,-106.5 351,-42.6 384.9,-76.5 "/>
<polygon class="st2" points="288,-106.7 288,-42.7 321.9,-76.6 "/>
<polygon class="st3" points="232,-106.8 232,-42.9 265.9,-76.8 "/>
<polygon class="st4" points="170,-107 170,-43 203.9,-77 "/>
<path class="st5" d="M86.8,96.4L21.1,36.8c-3.6-3.3-4-9-0.6-12.7l0,0c3.3-3.6,9-4,12.7-0.6l65.6,59.6c3.6,3.3,4,9,0.6,12.7l0,0
	C96.1,99.5,90.5,99.8,86.8,96.4z"/>
<path class="st5" d="M20.5,95.8L20.5,95.8c-3.4-3.7-3-9.4,0.6-12.7l65.6-59.6c3.7-3.4,9.4-3,12.7,0.6l0,0c3.4,3.7,3,9.4-0.6,12.7
	L33.2,96.4C29.5,99.8,23.9,99.5,20.5,95.8z"/>
</svg>
