<?xml version="1.0" encoding="utf-8"?>
<!-- Generator: Adobe Illustrator 18.0.0, SVG Export Plug-In . SVG Version: 6.00 Build 0)  -->
<!DOCTYPE svg PUBLIC "-//W3C//DTD SVG 1.1//EN" "http://www.w3.org/Graphics/SVG/1.1/DTD/svg11.dtd">
<svg version="1.1" id="Layer_1" xmlns="http://www.w3.org/2000/svg" xmlns:xlink="http://www.w3.org/1999/xlink" x="0px" y="0px"
	 viewBox="0 0 479 94.8" enable-background="new 0 0 479 94.8" xml:space="preserve">
<g>
	<defs>
		<path id="SVGID_1_" d="M121.7,8c-0.4,0-0.9,0-1.3,0.1L109.9,8l-0.1,0.2c-1.3-0.1-2.6-0.2-4-0.2H7.6C3.4,8,0,11.4,0,15.5
			c0,4.2,3.4,7.6,7.6,7.6h68.1h0c4.2,0,7.6,3.4,7.6,7.6s-3.4,7.6-7.6,7.6h-6.8H51.3c-4.2,0-7.6,3.4-7.6,7.6s3.4,7.6,7.6,7.6h17.5H76
			c4.2,0,7.6,3.4,7.6,7.6c0,4.2-3.4,7.6-7.6,7.6h-0.4H35.8c-4.2,0-7.6,3.4-7.6,7.6c0,4.2,3.4,7.6,7.6,7.6h55.7h14.4h44h51.5H220
			c20.9,0,37.8-16.9,37.8-37.8C257.8,24.9,240.9,8,220,8H121.7z"/>
	</defs>
	<clipPath id="SVGID_2_">
		<use xlink:href="#SVGID_1_"  overflow="visible"/>
	</clipPath>
	
		<linearGradient id="SVGID_3_" gradientUnits="userSpaceOnUse" x1="-6554.3354" y1="1931.5479" x2="-6553.335" y2="1931.5479" gradientTransform="matrix(257.8475 0 0 -257.8475 1690018.75 498090.5312)">
		<stop  offset="0" style="stop-color:#FFF23A"/>
		<stop  offset="4.010537e-02" style="stop-color:#FEE62D"/>
		<stop  offset="0.1171" style="stop-color:#FED41A"/>
		<stop  offset="0.1964" style="stop-color:#FDC90F"/>
		<stop  offset="0.2809" style="stop-color:#FDC60B"/>
		<stop  offset="0.6685" style="stop-color:#F28F3F"/>
		<stop  offset="0.8876" style="stop-color:#ED693C"/>
		<stop  offset="1" style="stop-color:#E83E39"/>
	</linearGradient>
	<rect y="8" clip-path="url(#SVGID_2_)" fill="url(#SVGID_3_)" width="257.8" height="75.6"/>
</g>
<polygon fill="#FFFFFF" points="351.8,83.1 331.4,83.1 331.4,36.1 319.3,76.2 297.6,76.2 285.5,36.1 285.5,83.1 265.1,83.1 265.1,8 
	293.4,8 308.5,53.2 323.5,8 351.8,8 "/>
<polygon fill="#FFFFFF" points="415.9,83.1 357.1,83.1 357.1,8 415.9,8 415.9,26.1 377.5,26.1 377.5,36.1 413.2,36.1 413.2,54.2 
	377.5,54.2 377.5,65 415.9,65 "/>
<polygon fill="#FFFFFF" points="479,26.8 457.6,26.8 457.6,83.1 437.2,83.1 437.2,26.8 373.8,26.8 373.8,8 479,8 "/>
<path fill="#FFFFFF" d="M178.2,25.6l-18.1,10c-3.6-6.2-9.2-9.5-16.5-9.5c-10.4,0-18.1,7.9-18.1,19.4c0,12.8,8.9,19.4,18.2,19.4
	c7.1,0,12.9-3.2,17-9.4l16.7,11.7c-7.1,10.6-18.6,17.3-33.4,17.3c-23.2,0-39.7-16.1-39.7-39s16.4-39,39.7-39
	C158.6,6.6,171.6,13.6,178.2,25.6"/>
<path fill="#FFFFFF" d="M257.8,45.6c0,22.7-16.7,38-37.8,38c-21,0-37.8-15.4-37.8-38c0-22.7,16.8-38,37.8-38
	C241.1,7.6,257.8,22.9,257.8,45.6 M184.3,45.6c0,21.6,15.9,36.1,35.7,36.1c19.8,0,35.7-14.4,35.7-36.1c0-21.6-15.9-36.1-35.7-36.1
	C200.3,9.5,184.3,23.9,184.3,45.6"/>
</svg>
