<?xml version="1.0" encoding="utf-8"?>
<!-- Generator: Adobe Illustrator 22.0.1, SVG Export Plug-In . SVG Version: 6.00 Build 0)  -->
<svg version="1.1" id="Layer_1" xmlns="http://www.w3.org/2000/svg" xmlns:xlink="http://www.w3.org/1999/xlink" x="0px" y="0px"
	 viewBox="0 0 120 120" style="enable-background:new 0 0 120 120;" xml:space="preserve">
<style type="text/css">
	.st0{fill:#EB6932;}
	.st1{fill:#E03E46;}
	.st2{fill:#D4145A;}
	.st3{fill:#BC2A91;}
	.st4{fill:#A43FC8;}
	.st5{stroke:#000000;stroke-width:4;stroke-miterlimit:10;}
</style>
<polygon class="st0" points="406,-106.4 406,-42.4 439.9,-76.3 "/>
<polygon class="st1" points="351,-106.5 351,-42.6 384.9,-76.5 "/>
<polygon class="st2" points="288,-106.7 288,-42.7 321.9,-76.6 "/>
<polygon class="st3" points="232,-106.8 232,-42.9 265.9,-76.8 "/>
<polygon class="st4" points="170,-107 170,-43 203.9,-77 "/>
<path class="st5" d="M89.3,38.1L40.6,86.8c-2.7,2.7-7.2,2.7-9.9,0l0,0c-2.7-2.7-2.7-7.2,0-9.9l48.8-48.8c2.7-2.7,7.2-2.7,9.9,0l0,0
	C92.1,30.9,92.1,35.3,89.3,38.1z"/>
<path class="st5" d="M79.4,86.8L30.7,38.1c-2.7-2.7-2.7-7.2,0-9.9l0,0c2.7-2.7,7.2-2.7,9.9,0l48.8,48.8c2.7,2.7,2.7,7.2,0,9.9l0,0
	C86.6,89.6,82.2,89.6,79.4,86.8z"/>
</svg>
